<?xml version="1.0" encoding="UTF-8"?>
<svg id="Layer_1" data-name="Layer 1" xmlns="http://www.w3.org/2000/svg" viewBox="0 0 1937.03 1865.28">
  <defs>
    <style>
      .cls-1 {
        fill: #fae40d;
      }
    </style>
  </defs>
  <ellipse class="cls-1" cx="968.51" cy="932.64" rx="968.51" ry="932.64"/>
  <path d="m950.57,1453.17c-80.1,0-149.54-34.71-190.55-95.25-24.98-36.92-36.43-79.31-33.4-119.98h-228.2c-19.48,0-37.48-10.58-46.98-27.57-9.49-16.99-9.06-37.87,1.16-54.44l120.35-195.57c-6.69-77.14-14.59-308.55,109.78-451.78,61.37-70.66,144.9-108.87,248.28-113.57,105.63-5.01,192.42,28.65,258.31,99.45,121.19,130.24,133.39,351.28,121.17,466.29l120.14,195.19c10.21,16.57,10.65,37.45,1.16,54.44-9.49,16.99-27.5,27.57-46.98,27.57h-231.58c2.33,46.27-7.5,101.55-41.76,145.45-24.85,31.84-72.95,69.78-160.89,69.78Zm-151.87-215.23c-3.4,26.2,3.78,54.68,20.74,79.73,27.43,40.53,75.23,63.75,131.14,63.75,47.38,0,82.5-14.19,104.34-42.18,21.93-28.09,28.72-67.85,26.43-101.31h-282.64Zm314.12-71.74h239.89l-106.51-173.05c-6.38-10.37-9.07-22.66-7.62-34.71,11.86-100.75,3.78-301.68-101.78-415.07-50.86-54.68-119-80.43-202.53-76.68-82.99,3.78-149.39,33.7-197.36,88.94-109.14,125.65-98,340.95-91.99,403.93,1.14,11.67-1.54,23.22-7.74,33.31l-106.65,173.33h582.29Zm197.01-199.36s-.02.07-.02.11c0-.04,0-.07.02-.11Zm-736.33-.46l.02.04-.02-.04Z"/>
</svg>